<svg width="49" height="49" viewBox="0 0 49 49" fill="none" xmlns="http://www.w3.org/2000/svg">
  <path d="M31.227 21.76a6.417 6.417 0 1 1-12.834 0 6.417 6.417 0 0 1 12.834 0Z" fill="#7EB77F" />
  <path fill-rule="evenodd" clip-rule="evenodd" d="M24.81 6.5c8.428 0 15.26 6.832 15.26 15.26 0 8.43-5.205 13.161-15.26 20.74C14.754 34.921 9.549 30.19 9.549 21.76c0-8.428 6.832-15.26 15.26-15.26Zm0 3.757c6.354 0 11.505 5.15 11.505 11.504 0 6.354-5.15 11.504-11.504 11.504-6.354 0-11.505-5.15-11.505-11.504 0-6.354 5.15-11.504 11.505-11.504Z" fill="#CED1D6" />
</svg>
